<?xml version="1.0" standalone="no"?>
<!DOCTYPE svg PUBLIC "-//W3C//DTD SVG 20010904//EN"
 "http://www.w3.org/TR/2001/REC-SVG-20010904/DTD/svg10.dtd">
<svg version="1.0" xmlns="http://www.w3.org/2000/svg"
 width="1219.000000pt" height="652.000000pt" viewBox="0 0 1219.000000 652.000000"
 preserveAspectRatio="xMidYMid meet">

<g transform="translate(0.000000,652.000000) scale(0.100000,-0.100000)"
fill="#000000" stroke="none">
<path d="M9661 5931 c-11 -7 -9 -42 13 -212 15 -112 29 -205 31 -207 4 -4 79
-22 81 -19 0 1 -10 87 -23 192 -19 154 -27 195 -46 222 -23 34 -33 38 -56 24z"/>
<path d="M10181 5352 c-10 -24 -38 -41 -164 -99 -84 -39 -176 -81 -204 -93
-33 -14 -53 -29 -53 -39 0 -9 11 -110 24 -226 14 -115 22 -222 19 -236 -8 -43
12 -69 53 -69 22 0 37 6 40 15 5 13 -21 281 -42 431 l-6 41 74 36 c40 19 127
61 193 92 124 58 165 87 165 115 0 22 -28 46 -61 54 -23 5 -28 1 -38 -22z"/>
<path d="M3839 4966 c-2 -2 -31 -6 -64 -9 -78 -7 -259 -40 -360 -66 -211 -55
-627 -225 -700 -286 -11 -9 15 1 57 23 205 107 563 240 743 276 142 29 297 46
415 45 101 0 145 -3 300 -24 19 -2 10 2 -20 10 -77 20 -358 43 -371 31z"/>
<path d="M9257 4946 c-70 -29 -125 -64 -183 -118 -45 -41 -55 -73 -32 -96 25
-25 60 -12 122 46 35 31 96 75 136 96 66 35 84 40 164 45 l91 6 -52 23 c-72
31 -168 30 -246 -2z"/>
<path d="M4278 4913 c7 -3 16 -2 19 1 4 3 -2 6 -13 5 -11 0 -14 -3 -6 -6z"/>
<path d="M4358 4890 c110 -39 232 -113 315 -190 91 -85 104 -92 147 -83 l30 6
-57 53 c-101 94 -245 171 -400 214 -90 25 -105 25 -35 0z"/>
<path d="M2595 4543 c-27 -14 -52 -29 -55 -32 -3 -4 -27 -20 -55 -36 -48 -28
-254 -164 -285 -189 -9 -6 -36 -26 -60 -43 -45 -31 -130 -100 -251 -202 -194
-163 -509 -486 -629 -645 -25 -32 -66 -86 -92 -120 -75 -97 -277 -402 -335
-506 -50 -88 -71 -130 -157 -315 -71 -151 -187 -538 -173 -578 2 -6 7 8 11 33
12 77 94 345 136 447 217 520 523 965 970 1414 296 297 601 537 933 733 53 32
97 60 97 62 0 6 0 6 -55 -23z"/>
<path d="M3505 4475 c63 -105 99 -298 109 -580 4 -93 11 -267 16 -385 5 -118
19 -448 30 -732 19 -466 19 -520 6 -547 -44 -85 -243 -150 -421 -138 -44 3
-89 9 -100 12 -18 6 -17 4 3 -14 53 -46 209 -71 330 -52 146 23 252 76 284
141 18 37 18 36 -22 950 -6 129 -15 341 -20 470 -23 522 -39 645 -101 782 -20
42 -49 84 -75 108 -64 59 -80 52 -39 -15z"/>
<path d="M9674 4476 c40 -48 40 -48 27 -94 -11 -43 -58 -205 -216 -737 -29
-99 -81 -274 -115 -390 -34 -115 -81 -275 -105 -355 -24 -80 -73 -246 -110
-370 -116 -395 -128 -431 -147 -441 -35 -19 -276 -22 -368 -5 -46 8 -86 14
-87 12 -2 -2 19 -13 46 -24 44 -19 153 -43 266 -59 49 -7 233 16 242 31 23 36
83 237 83 275 0 59 15 110 43 153 13 19 26 43 29 53 3 11 34 115 68 230 34
116 86 291 115 390 29 99 81 275 115 390 35 116 82 275 105 355 23 80 63 215
89 301 25 86 46 164 46 173 0 22 -64 91 -119 129 l-46 31 39 -48z"/>
<path d="M7197 4373 c-7 -137 -22 -537 -36 -918 -4 -110 -5 -203 -3 -207 1 -4
25 36 51 90 l49 97 6 375 c3 206 7 440 7 520 l1 145 -28 17 c-16 10 -32 18
-35 18 -3 0 -9 -62 -12 -137z"/>
<path d="M8402 4402 c40 -45 68 -92 68 -117 0 -15 -146 -273 -430 -760 -26
-44 -150 -258 -275 -475 -125 -217 -251 -435 -279 -485 -142 -243 -167 -287
-216 -372 l-52 -93 -57 -1 c-252 -3 -357 6 -444 36 -65 22 -57 8 15 -25 101
-47 180 -60 383 -60 99 0 185 4 191 8 9 6 109 173 249 417 56 97 167 289 260
450 101 173 121 208 177 305 30 52 90 156 133 230 43 74 92 159 109 188 17 30
36 61 41 70 6 9 31 53 56 97 25 44 79 136 119 205 40 69 84 144 97 167 23 41
24 44 8 76 -20 42 -118 143 -159 164 l-31 16 37 -41z"/>
<path d="M5934 4393 c53 -44 128 -138 161 -203 12 -25 36 -83 51 -130 34 -99
36 -191 9 -335 -59 -318 -244 -543 -575 -698 l-89 -42 269 -360 c148 -198 269
-367 270 -376 0 -9 -19 -45 -42 -79 -74 -112 -219 -198 -414 -248 -57 -15
-104 -29 -104 -32 1 -3 10 -16 21 -29 19 -24 21 -24 92 -12 208 37 415 147
496 265 56 82 69 56 -220 441 -144 193 -264 358 -266 367 -4 13 6 22 38 35
218 86 430 266 522 441 71 136 100 254 101 422 1 127 -1 140 -30 221 -52 145
-149 269 -279 359 -61 42 -66 37 -11 -7z"/>
<path d="M5020 3911 c0 -4 17 -16 38 -26 26 -13 78 -22 177 -30 77 -6 142 -10
143 -9 12 8 -56 37 -114 48 -83 17 -244 28 -244 17z"/>
<path d="M4305 3861 c-48 -6 -50 -7 -50 -36 0 -30 0 -30 53 -29 60 2 68 7 77
47 8 30 12 29 -80 18z"/>
<path d="M5162 3792 c-1 -15 -13 -81 -26 -147 -12 -66 -22 -122 -20 -124 2 -2
27 10 55 26 l53 30 16 86 c9 48 14 90 11 95 -7 9 -76 62 -82 62 -2 0 -5 -12
-7 -28z"/>
<path d="M3074 3779 c-12 -15 -224 -436 -224 -444 0 -3 27 -5 60 -5 l60 0 60
120 61 121 -3 111 c-2 83 -6 108 -14 97z"/>
<path d="M11461 3489 c32 -61 27 -121 -24 -294 -25 -82 -77 -256 -116 -386
-39 -130 -71 -239 -71 -243 0 -4 23 -6 52 -4 l52 3 12 45 c6 25 42 144 79 265
37 121 80 264 96 317 30 102 37 193 18 231 -17 33 -60 77 -91 93 l-28 14 21
-41z"/>
<path d="M10801 3471 c57 -90 72 -225 46 -391 -15 -96 -30 -105 -169 -105 -54
0 -98 -1 -98 -2 0 -1 14 -10 31 -18 63 -33 224 -43 268 -16 19 12 71 207 71
269 0 29 -11 87 -25 130 -20 61 -34 87 -68 119 -23 22 -52 46 -64 52 -21 10
-20 7 8 -38z"/>
<path d="M10411 3100 c-48 -68 -129 -234 -162 -330 -12 -36 -24 -95 -27 -131
-4 -64 -3 -68 23 -85 37 -24 58 -9 67 49 14 98 51 197 133 358 20 39 30 70 25
75 -5 5 -5 26 2 51 10 43 6 73 -10 73 -5 0 -28 -27 -51 -60z"/>
<path d="M2913 2738 l-48 -73 -114 -5 -115 -5 -61 -135 c-63 -137 -134 -272
-199 -373 -35 -54 -37 -56 -93 -63 -70 -9 -230 8 -296 31 -74 25 -69 9 7 -25
82 -38 166 -57 276 -65 127 -9 158 0 198 60 62 93 145 248 205 382 l60 133
108 0 c140 0 142 2 135 118 -3 47 -7 87 -10 89 -2 3 -26 -28 -53 -69z"/>
<path d="M4806 2708 c-3 -18 -15 -103 -26 -188 -12 -85 -31 -202 -43 -260
l-22 -105 -185 0 c-185 1 -301 16 -403 51 -60 21 -41 -7 21 -32 29 -11 55 -23
58 -27 4 -3 -12 -29 -35 -58 -22 -28 -38 -56 -34 -62 3 -5 2 -7 -4 -4 -5 4
-51 -40 -101 -96 -112 -126 -335 -347 -462 -457 -52 -46 -95 -87 -95 -93 0 -6
-8 -11 -17 -13 -22 -3 -99 -65 -93 -75 3 -4 0 -11 -6 -15 -8 -4 -9 -3 -5 4 11
18 -5 14 -28 -7 -12 -10 -77 -58 -146 -106 -69 -48 -124 -91 -123 -95 1 -4 -5
-7 -15 -6 -9 0 -16 -5 -14 -12 1 -8 -2 -11 -7 -8 -5 4 -63 -26 -127 -65 -359
-217 -774 -376 -1099 -423 -496 -71 -871 35 -1101 312 -83 100 -157 254 -191
400 -15 63 -18 120 -18 307 0 127 -3 208 -7 180 -3 -27 -7 -118 -7 -201 -2
-335 71 -544 262 -749 86 -93 236 -185 362 -221 50 -14 135 -39 190 -55 110
-32 228 -49 350 -49 146 0 505 66 690 127 172 56 519 216 682 315 465 280 850
608 1223 1042 95 111 139 155 150 150 27 -10 192 -23 307 -24 98 0 112 2 117
18 5 17 68 363 83 462 9 54 8 56 -30 113 -22 31 -41 57 -43 57 -2 0 -5 -15 -8
-32z"/>
<path d="M1790 2698 c0 -7 4 -19 9 -27 7 -11 11 -10 20 6 5 11 7 23 4 27 -11
11 -33 7 -33 -6z"/>
<path d="M10741 2651 c21 -29 21 -30 4 -83 -68 -210 -182 -360 -329 -435 -68
-34 -193 -56 -278 -47 -38 3 -68 3 -68 -1 0 -15 90 -43 155 -50 208 -19 370
59 496 239 47 67 49 72 50 140 0 39 8 103 19 141 10 39 17 70 16 71 0 0 -17
13 -37 27 -46 35 -55 34 -28 -2z"/>
<path d="M9610 2505 c0 -4 8 -19 19 -33 31 -45 44 -101 39 -166 -6 -70 -24
-110 -69 -155 -45 -46 -85 -63 -159 -69 l-65 -5 50 -24 c100 -46 217 -19 282
64 76 97 72 237 -8 323 -28 30 -89 74 -89 65z"/>
<path d="M11645 2412 c0 -92 -2 -101 -39 -179 -21 -46 -46 -89 -55 -97 -14
-12 -58 -13 -286 -7 -148 4 -279 11 -290 15 -11 5 -4 -2 15 -14 72 -47 102
-51 380 -57 l265 -5 37 68 c20 38 46 107 59 153 19 74 21 90 10 130 -17 66
-37 91 -69 91 l-27 0 0 -98z"/>
<path d="M492 1835 c0 -16 2 -22 5 -12 2 9 2 23 0 30 -3 6 -5 -1 -5 -18z"/>
<path d="M4070 1673 c-76 -93 -336 -353 -444 -443 -175 -147 -212 -176 -279
-225 -37 -28 -102 -75 -145 -107 -42 -31 -152 -107 -244 -169 -93 -62 -168
-114 -168 -116 0 -2 1853 -3 4118 -3 l4118 0 33 78 c18 42 53 127 77 187 25
61 49 118 55 128 5 10 32 73 59 140 49 123 143 353 198 482 16 39 32 80 36 92
l7 23 -3683 0 -3683 0 -55 -67z m7167 6 c136 -66 123 -284 -20 -338 -66 -25
-164 -4 -209 46 -48 53 -60 141 -29 208 44 97 156 133 258 84z m-6873 -310
c50 -40 59 -72 64 -231 l4 -148 -61 0 -61 0 0 134 c0 99 -3 136 -13 145 -8 6
-17 8 -20 4 -4 -3 -7 -69 -7 -145 l0 -138 -60 0 -60 0 0 140 c0 161 13 210 64
241 43 26 115 25 150 -2z m1810 0 c50 -40 59 -72 64 -231 l4 -148 -61 0 -61 0
0 134 c0 99 -3 136 -13 145 -8 6 -17 8 -20 4 -4 -3 -7 -69 -7 -145 l0 -138
-60 0 -60 0 0 140 c0 161 13 210 64 241 43 26 115 25 150 -2z m379 7 c54 -23
107 -93 107 -142 0 -20 -116 -20 -123 0 -3 8 -17 22 -32 32 -21 14 -30 14 -55
4 -36 -15 -50 -37 -50 -80 0 -43 14 -65 50 -80 25 -11 34 -10 56 5 14 9 30 30
36 46 9 28 13 29 70 29 l60 0 -7 -32 c-26 -124 -123 -188 -250 -164 -43 8
-113 68 -132 113 -40 98 13 234 107 272 37 14 126 13 163 -3z m622 -9 c140
-80 136 -285 -8 -358 -32 -17 -54 -20 -104 -17 -69 4 -97 20 -147 82 -58 71
-45 198 26 262 64 59 161 72 233 31z m359 2 c50 -40 59 -72 64 -231 l4 -148
-61 0 -61 0 0 134 c0 99 -3 136 -13 145 -8 6 -17 8 -20 4 -4 -3 -7 -69 -7
-145 l0 -138 -60 0 -60 0 0 140 c0 161 13 210 64 241 43 26 115 25 150 -2z
m564 -47 c3 -59 2 -63 -16 -58 -35 12 -46 -17 -23 -63 24 -45 27 -114 7 -149
-21 -38 -66 -62 -118 -62 l-48 0 0 61 c0 33 4 58 9 55 14 -9 41 4 41 20 0 8
-9 31 -20 51 -12 23 -20 57 -20 87 0 43 4 53 39 88 38 37 43 39 93 36 l53 -3
3 -63z m576 47 c50 -40 59 -72 64 -231 l4 -148 -61 0 -61 0 0 134 c0 99 -3
136 -13 145 -8 6 -17 8 -20 4 -4 -3 -7 -69 -7 -145 l0 -138 -60 0 -60 0 0 140
c0 161 13 210 64 241 43 26 115 25 150 -2z m352 0 c19 -11 34 -26 34 -33 0 -7
-21 -28 -46 -46 -39 -27 -50 -31 -65 -22 -15 10 -20 8 -29 -7 -17 -33 -12 -61
10 -61 17 0 20 -7 20 -50 0 -43 -3 -50 -20 -50 -18 0 -20 -7 -20 -55 l0 -55
-61 0 -61 0 4 148 c4 164 15 198 71 232 44 27 119 26 163 -1z m234 8 c13 -7
35 -28 47 -46 21 -32 23 -44 23 -187 l0 -154 -55 0 -55 0 0 126 c0 132 -10
175 -36 153 -8 -6 -14 -24 -14 -40 0 -22 5 -29 20 -29 17 0 20 -7 20 -50 0
-43 -3 -50 -20 -50 -18 0 -20 -7 -20 -55 l0 -55 -60 0 -60 0 0 120 c0 158 12
211 56 250 28 24 43 30 82 30 26 0 58 -6 72 -13z m344 -8 c50 -40 59 -72 64
-231 l4 -148 -61 0 -61 0 0 134 c0 99 -3 136 -13 145 -8 6 -17 8 -20 4 -4 -3
-7 -69 -7 -145 l0 -138 -60 0 -60 0 0 140 c0 161 13 210 64 241 43 26 115 25
150 -2z m1254 -47 c3 -59 2 -63 -16 -58 -35 12 -46 -17 -23 -63 24 -45 27
-114 7 -149 -21 -38 -66 -62 -118 -62 l-48 0 0 61 c0 33 4 58 9 55 14 -9 41 4
41 20 0 8 -9 31 -20 51 -12 23 -20 57 -20 87 0 43 4 53 39 88 38 37 43 39 93
36 l53 -3 3 -63z m-6758 3 l0 -55 -43 0 c-48 0 -58 -5 -50 -26 3 -9 20 -14 44
-14 l39 0 0 -44 0 -45 -47 -3 c-35 -2 -48 -7 -48 -18 0 -11 14 -16 53 -18 l52
-3 0 -55 0 -54 -71 0 c-132 0 -148 22 -149 194 l0 128 34 34 c33 33 37 34 110
34 l76 0 0 -55z m640 0 l0 -55 -40 0 -40 0 0 -140 0 -140 -60 0 -60 0 0 140 0
140 -40 0 -40 0 0 55 0 55 140 0 140 0 0 -55z m288 35 c34 -21 62 -72 62 -113
0 -13 -11 -41 -25 -61 l-25 -36 24 -63 c13 -34 27 -70 31 -79 6 -16 0 -18 -56
-18 l-64 0 -28 68 c-16 40 -27 86 -27 113 0 42 3 48 26 53 34 9 28 40 -9 44
l-27 3 0 -140 0 -141 -60 0 -60 0 0 195 0 195 103 0 c85 0 108 -3 135 -20z
m312 -35 l0 -55 -43 0 c-48 0 -58 -5 -50 -26 3 -9 20 -14 44 -14 l39 0 0 -44
0 -45 -47 -3 c-35 -2 -48 -7 -48 -18 0 -11 14 -16 53 -18 l52 -3 0 -55 0 -54
-71 0 c-132 0 -148 22 -149 194 l0 128 34 34 c33 33 37 34 110 34 l76 0 0 -55z
m310 0 l0 -55 -40 0 -40 0 0 -140 0 -140 -60 0 -60 0 0 140 0 140 -40 0 -40 0
0 55 0 55 140 0 140 0 0 -55z m260 0 l0 -55 -43 0 c-48 0 -58 -5 -50 -26 3 -9
20 -14 44 -14 l39 0 0 -44 0 -45 -47 -3 c-35 -2 -48 -7 -48 -18 0 -11 14 -16
53 -18 l52 -3 0 -55 0 -54 -71 0 c-132 0 -148 22 -149 194 l0 128 34 34 c33
33 37 34 110 34 l76 0 0 -55z m920 -140 l0 -195 -60 0 -60 0 0 195 0 195 60 0
60 0 0 -195z m1030 140 l0 -55 -43 0 c-48 0 -58 -5 -50 -26 3 -9 20 -14 44
-14 l39 0 0 -44 0 -45 -47 -3 c-35 -2 -48 -7 -48 -18 0 -11 14 -16 53 -18 l52
-3 0 -55 0 -54 -71 0 c-132 0 -148 22 -149 194 l0 128 34 34 c33 33 37 34 110
34 l76 0 0 -55z m550 -140 l0 -195 -60 0 -60 0 0 195 0 195 60 0 60 0 0 -195z
m1580 140 l0 -55 -40 0 -40 0 0 -140 0 -140 -60 0 -60 0 0 140 0 140 -40 0
-40 0 0 55 0 55 140 0 140 0 0 -55z m160 -140 l0 -195 -60 0 -60 0 0 195 0
195 60 0 60 0 0 -195z m182 63 c3 -127 4 -133 26 -143 19 -8 22 -17 22 -62 l0
-53 -40 0 c-23 0 -55 7 -71 16 -49 25 -59 64 -59 229 l0 145 60 0 59 0 3 -132z
m298 77 l0 -55 -43 0 c-48 0 -58 -5 -50 -26 3 -9 20 -14 44 -14 l39 0 0 -44 0
-45 -47 -3 c-35 -2 -48 -7 -48 -18 0 -11 14 -16 53 -18 l52 -3 0 -55 0 -54
-71 0 c-132 0 -148 22 -149 194 l0 128 34 34 c33 33 37 34 110 34 l76 0 0 -55z"/>
<path d="M11090 1642 c-94 -47 -107 -175 -24 -241 37 -29 84 -36 127 -17 44
18 48 36 8 36 -18 0 -34 8 -44 23 l-16 22 0 -22 c-1 -20 -6 -23 -41 -23 l-40
0 0 100 0 100 68 0 c80 0 112 -17 112 -60 0 -16 -7 -36 -16 -45 -15 -14 -15
-19 3 -61 l20 -45 18 27 c46 71 19 170 -58 205 -52 23 -73 24 -117 1z"/>
<path d="M11140 1554 c0 -16 5 -24 13 -22 18 7 20 35 2 41 -11 5 -15 0 -15
-19z"/>
<path d="M7032 1255 c-45 -38 -45 -92 -1 -129 40 -34 64 -33 100 3 36 36 38
79 7 115 -35 39 -69 42 -106 11z"/>
</g>
</svg>
